<?xml version="1.0" encoding="UTF-8" standalone="no"?>
<!-- Generator: Adobe Illustrator 19.0.0, SVG Export Plug-In . SVG Version: 6.00 Build 0)  -->

<svg
   xmlns:dc="http://purl.org/dc/elements/1.1/"
   xmlns:cc="http://creativecommons.org/ns#"
   xmlns:rdf="http://www.w3.org/1999/02/22-rdf-syntax-ns#"
   xmlns:svg="http://www.w3.org/2000/svg"
   xmlns="http://www.w3.org/2000/svg"
   xmlns:sodipodi="http://sodipodi.sourceforge.net/DTD/sodipodi-0.dtd"
   xmlns:inkscape="http://www.inkscape.org/namespaces/inkscape"
   version="1.1"
   id="Layer_1"
   x="0px"
   y="0px"
   viewBox="0 0 512 512"
   style="enable-background:new 0 0 512 512;"
   xml:space="preserve"
   inkscape:version="0.91 r13725"
   sodipodi:docname="logo.svg"
   inkscape:export-filename="/home/breno/src/e-molduras.github.io/logo-200.png"
   inkscape:export-xdpi="29.41"
   inkscape:export-ydpi="29.41"><metadata
     id="metadata45"><rdf:RDF><cc:Work
         rdf:about=""><dc:format>image/svg+xml</dc:format><dc:type
           rdf:resource="http://purl.org/dc/dcmitype/StillImage" /><dc:title /></cc:Work></rdf:RDF></metadata><defs
     id="defs43" /><sodipodi:namedview
     pagecolor="#ffffff"
     bordercolor="#666666"
     borderopacity="1"
     objecttolerance="10"
     gridtolerance="10"
     guidetolerance="10"
     inkscape:pageopacity="0"
     inkscape:pageshadow="2"
     inkscape:window-width="1366"
     inkscape:window-height="712"
     id="namedview41"
     showgrid="false"
     showguides="false"
     inkscape:zoom="0.70710678"
     inkscape:cx="77.832865"
     inkscape:cy="274.84567"
     inkscape:window-x="0"
     inkscape:window-y="0"
     inkscape:window-maximized="1"
     inkscape:current-layer="g4340"><inkscape:grid
       type="xygrid"
       id="grid3388" /></sodipodi:namedview><g
     id="g4340"
     transform="matrix(0.9808468,0,0,1.0084124,4.9040714,-2.1523886)"><rect
       style="fill:#b42f53;fill-opacity:1;stroke:none"
       id="rect3356"
       width="725.90338"
       height="706.06036"
       x="-106.95255"
       y="-97.031372" /><path
       id="path3"
       d="M 0.14,420.589 C -0.665,408.918 2.008,397.451 7.87,387.43 52.418,311.273 52.418,200.724 7.87,124.568 2.008,114.547 -0.665,103.082 0.14,91.409 4.367,30.114 89.486,17.286 111.568,74.786 c 0.929,2.42 3.03,3.984 5.349,3.984 l 278.164,0 c 2.32,0 4.42,-1.564 5.349,-3.984 22.122,-57.61 107.209,-44.562 111.428,16.623 0.806,11.674 -1.868,23.14 -7.731,33.161 -44.553,76.154 -44.553,186.702 0,262.856 5.863,10.021 8.536,21.487 7.731,33.161 -4.226,61.282 -89.34,74.14 -111.428,16.622 -0.929,-2.42 -3.03,-3.984 -5.349,-3.984 l -278.164,0 c -2.32,0 -4.42,1.564 -5.349,3.984 C 89.442,494.831 4.359,481.768 0.14,420.589 Z"
       style="fill:#c69c69;fill-opacity:1;stroke:#000000;stroke-width:10;stroke-miterlimit:4;stroke-dasharray:none;stroke-opacity:1"
       inkscape:connector-curvature="0" /><g
       id="g3381"
       transform="matrix(0.66298894,0,0,0.6812564,110.434,106.50377)"><path
         style="fill:#d6ced1"
         d="M 423.122,75.675 219.429,205.126 15.735,75.675 C 11.267,79.795 8.44,85.672 8.44,92.192 l 0,254.474 c 0,6.551 2.854,12.453 7.36,16.575 l 203.629,-129.386 209.254,135.317 1.735,0 0,-276.981 c 0,-6.519 -2.827,-12.397 -7.296,-16.516 z"
         id="path3-56"
         inkscape:connector-curvature="0" /><path
         style="fill:#c2b8b9"
         d="m 30.945,369.171 397.737,0 -142.044,-149.742 -134.419,0 L 15.8,363.241 c 4.007,3.667 9.318,5.93 15.145,5.93 z"
         id="path5-2"
         inkscape:connector-curvature="0" /><path
         style="fill:#ece7ea"
         d="m 30.945,69.686 c -5.858,0 -11.195,2.287 -15.21,5.989 l 188.167,197.458 c 8.54,8.961 22.512,8.961 31.052,0 L 423.122,75.675 c -4.015,-3.702 -9.352,-5.989 -15.21,-5.989 l -376.967,0 z"
         id="path7-9"
         inkscape:connector-curvature="0" /><path
         d="m 323.517,360.732 -292.572,0 c -7.757,0 -14.066,-6.309 -14.066,-14.066 l 0,-254.475 c 0,-7.757 6.309,-14.066 14.066,-14.066 l 376.967,0 c 7.757,0 14.066,6.309 14.066,14.066 l 0,170.079 c 0,4.661 3.778,8.44 8.44,8.44 4.662,0 8.44,-3.779 8.44,-8.44 l 0,-170.079 c 0,-17.064 -13.883,-30.945 -30.945,-30.945 l -376.968,0 C 13.883,61.246 0,75.128 0,92.191 l 0,254.474 c 0,17.064 13.883,30.945 30.945,30.945 l 292.571,0 c 4.662,0 8.44,-3.779 8.44,-8.44 0,-4.661 -3.777,-8.438 -8.439,-8.438 z"
         id="path11-1"
         inkscape:connector-curvature="0" /><path
         d="m 402.482,97.335 c -3.375,-3.215 -8.716,-3.089 -11.932,0.288 L 228.845,267.31 c -2.521,2.647 -5.866,4.104 -9.416,4.104 -3.55,0 -6.896,-1.457 -9.416,-4.103 L 48.308,97.622 c -3.217,-3.375 -8.557,-3.502 -11.932,-0.288 -3.375,3.216 -3.503,8.558 -0.288,11.932 L 140.826,219.176 36.074,329.604 c -3.208,3.381 -3.067,8.723 0.315,11.931 1.632,1.548 3.721,2.317 5.806,2.317 2.234,0 4.465,-0.882 6.124,-2.631 l 104.164,-109.81 45.307,47.544 c 5.739,6.021 13.423,9.338 21.637,9.338 8.213,0 15.898,-3.316 21.637,-9.339 l 45.306,-47.543 63.485,66.925 c 1.66,1.75 3.89,2.631 6.124,2.631 2.086,0 4.175,-0.769 5.806,-2.317 3.383,-3.208 3.523,-8.55 0.315,-11.931 l -64.072,-67.544 104.738,-109.91 c 3.218,-3.372 3.09,-8.715 -0.284,-11.93 z"
         id="path13-2"
         inkscape:connector-curvature="0" /></g></g><g
     id="g11" /><g
     id="g13" /><g
     id="g15" /><g
     id="g17" /><g
     id="g19" /><g
     id="g21" /><g
     id="g23" /><g
     id="g25" /><g
     id="g27" /><g
     id="g29" /><g
     id="g31" /><g
     id="g33" /><g
     id="g35" /><g
     id="g37" /><g
     id="g39" /></svg>